<?xml version="1.0" standalone="no"?>
<!DOCTYPE svg PUBLIC "-//W3C//DTD SVG 20010904//EN"
 "http://www.w3.org/TR/2001/REC-SVG-20010904/DTD/svg10.dtd">
<svg version="1.0" xmlns="http://www.w3.org/2000/svg"
 width="1024.000000pt" height="1024.000000pt" viewBox="0 0 1024.000000 1024.000000"
 preserveAspectRatio="xMidYMid meet">

<g transform="translate(0.000000,1024.000000) scale(0.100000,-0.100000)"
fill="#000000" stroke="none">
<path d="M3575 7186 c-40 -17 -82 -67 -95 -114 -8 -26 -10 -481 -8 -1492 l3
-1455 144 1 143 1 -1 356 -2 357 325 0 326 0 2 -355 3 -355 170 -2 170 -3 3
848 2 847 -175 0 -175 0 0 -340 0 -340 -325 0 -325 0 2 898 3 897 1368 3 1367
2 -2 -1232 -3 -1233 -232 -3 -233 -2 0 -176 0 -175 303 3 302 3 47 27 c32 19
52 41 67 71 l21 43 0 1392 c0 1231 -2 1397 -15 1429 -20 48 -41 71 -87 94 -36
18 -85 19 -1550 19 -1235 -1 -1519 -3 -1543 -14z"/>
<path d="M4822 5643 l3 -178 165 -5 c178 -5 213 -15 246 -65 23 -36 22 -120
-3 -153 -47 -62 -60 -67 -241 -72 l-167 -5 0 -172 0 -172 165 -4 c147 -3 171
-6 210 -25 61 -30 83 -64 88 -132 2 -42 -2 -62 -17 -87 -37 -60 -66 -67 -266
-73 l-180 -5 0 -183 0 -184 285 5 c308 5 368 13 480 63 184 82 282 363 201
575 -37 98 -140 181 -268 220 -41 12 -58 29 -30 29 35 0 140 65 186 116 71 78
94 144 89 260 -3 79 -8 100 -38 160 -40 81 -116 161 -186 197 -110 56 -138 60
-442 65 l-282 4 2 -179z"/>
<path d="M3350 3752 c-50 -24 -70 -71 -70 -159 0 -83 20 -144 55 -167 64 -42
158 -24 195 36 27 45 29 186 2 238 -19 39 -71 70 -117 70 -16 0 -46 -8 -65
-18z m94 -74 c19 -26 22 -148 6 -179 -6 -10 -21 -19 -35 -19 -18 0 -26 8 -35
36 -18 52 -8 153 15 170 25 19 31 18 49 -8z"/>
<path d="M4070 3759 c-47 -19 -70 -50 -70 -91 0 -58 15 -77 86 -109 53 -24 64
-33 64 -53 0 -13 -7 -27 -16 -30 -20 -8 -54 11 -54 29 0 11 -12 15 -46 15 -45
0 -46 -1 -39 -27 11 -48 33 -72 76 -83 85 -23 161 15 175 85 10 53 -13 85 -86
125 -64 35 -85 62 -55 73 22 9 42 -1 48 -24 5 -17 11 -19 44 -13 48 8 49 9 37
41 -19 54 -106 87 -164 62z"/>
<path d="M4771 3757 c-38 -19 -63 -61 -72 -119 -17 -101 9 -187 63 -211 20 -8
30 -22 34 -44 6 -31 9 -33 45 -33 37 0 39 1 39 33 0 25 6 36 30 49 41 23 60
73 60 155 -1 88 -25 143 -73 166 -41 20 -92 22 -126 4z m96 -94 c12 -45 9
-139 -6 -157 -18 -22 -48 -20 -61 3 -5 11 -10 47 -10 81 0 73 12 100 45 100
18 0 27 -7 32 -27z"/>
<path d="M5038 3763 c-16 -4 -18 -19 -18 -141 0 -161 12 -193 77 -211 47 -13
59 -13 106 0 65 18 77 50 77 210 l0 137 -26 5 c-61 11 -63 7 -66 -136 -3 -111
-6 -131 -20 -141 -13 -8 -23 -8 -35 0 -15 9 -19 32 -23 145 l-5 134 -25 2
c-14 0 -33 -1 -42 -4z"/>
<path d="M6104 3751 c-47 -29 -68 -91 -62 -189 3 -60 10 -86 26 -110 55 -77
192 -63 228 23 22 53 19 192 -6 232 -37 61 -124 82 -186 44z m106 -87 c6 -14
10 -49 10 -79 0 -73 -13 -105 -44 -105 -29 0 -46 39 -46 105 0 66 17 105 46
105 17 0 27 -8 34 -26z"/>
<path d="M6431 3758 c-51 -27 -66 -62 -69 -161 -3 -75 0 -98 16 -126 48 -88
180 -93 232 -9 18 29 21 46 18 135 -3 100 -4 103 -35 134 -26 27 -41 33 -85
36 -31 2 -63 -1 -77 -9z m99 -89 c13 -23 13 -130 0 -163 -10 -28 -40 -35 -58
-13 -28 34 -26 162 4 191 17 18 41 11 54 -15z"/>
<path d="M6825 3693 l-40 -78 -3 73 -3 72 -44 0 -45 0 0 -175 0 -175 45 0 45
0 0 53 c0 56 13 89 28 72 5 -6 19 -36 32 -67 l22 -58 49 0 48 0 -34 81 c-19
44 -39 88 -44 97 -7 12 2 36 30 87 21 40 39 77 39 83 0 7 -17 12 -43 12 l-43
0 -39 -77z"/>
<path d="M7040 3752 c-25 -12 -39 -28 -49 -58 -21 -60 -3 -90 82 -134 53 -27
67 -39 65 -55 -4 -29 -53 -33 -68 -6 -8 16 -21 21 -52 21 -40 0 -40 0 -34 -32
8 -43 32 -66 78 -78 88 -24 168 24 168 100 0 60 -14 79 -86 111 -48 22 -64 34
-64 49 0 31 30 37 51 12 12 -16 28 -22 58 -22 44 0 47 4 31 44 -22 58 -112 82
-180 48z"/>
<path d="M2960 3585 l0 -175 45 0 45 0 0 65 0 65 40 0 40 0 0 -65 0 -65 45 0
45 0 0 175 0 175 -45 0 -45 0 0 -70 0 -70 -37 0 -38 0 3 70 4 70 -51 0 -51 0
0 -175z"/>
<path d="M3610 3585 l0 -175 100 0 100 0 0 40 0 40 -55 0 -55 0 0 135 0 135
-45 0 -45 0 0 -175z"/>
<path d="M3850 3585 l0 -175 45 0 45 0 0 175 0 175 -45 0 -45 0 0 -175z"/>
<path d="M4280 3720 c0 -39 1 -40 35 -40 l35 0 0 -135 0 -135 45 0 45 0 0 135
0 135 35 0 c34 0 35 1 35 40 l0 40 -115 0 -115 0 0 -40z"/>
<path d="M4550 3585 l0 -175 50 0 50 0 0 78 c0 42 -3 121 -7 175 l-6 97 -44 0
-43 0 0 -175z"/>
<path d="M5340 3585 l0 -175 105 0 105 0 0 35 0 35 -60 0 -60 0 0 35 0 35 55
0 55 0 0 35 0 35 -55 0 -55 0 0 35 0 35 60 0 60 0 0 35 0 35 -105 0 -105 0 0
-175z"/>
<path d="M5744 3723 c3 -21 6 -100 6 -175 l0 -138 93 0 c103 0 126 9 147 59
16 40 5 96 -23 116 -15 11 -18 18 -10 23 18 12 34 61 27 88 -13 49 -47 64
-152 64 l-95 0 7 -37z m144 -35 c16 -16 15 -33 -4 -52 -28 -28 -44 -20 -44 24
0 32 4 40 18 40 10 0 23 -5 30 -12z m10 -166 c3 -27 -1 -34 -23 -42 -36 -14
-45 -6 -45 41 0 39 1 40 33 37 28 -3 32 -7 35 -36z"/>
<path d="M3036 3228 c-13 -36 -46 -166 -46 -176 0 -20 38 -13 45 8 4 12 15 20
30 20 14 0 25 -7 28 -20 6 -22 47 -29 47 -7 0 6 -11 50 -24 97 -21 78 -25 85
-50 88 -15 2 -28 -2 -30 -10z m43 -100 c1 -10 -6 -18 -14 -18 -16 0 -20 26 -8
56 6 16 7 16 14 -2 4 -10 8 -27 8 -36z"/>
<path d="M3160 3168 c0 -97 14 -122 67 -126 62 -5 73 12 73 114 0 82 -1 85
-22 82 -20 -3 -21 -8 -19 -74 2 -53 -2 -74 -13 -83 -27 -22 -36 -2 -36 80 0
78 0 79 -25 79 -24 0 -25 -2 -25 -72z"/>
<path d="M3433 3225 c-28 -19 -40 -90 -24 -138 23 -69 114 -72 132 -4 6 23 4
27 -14 27 -12 0 -28 -9 -35 -21 -21 -33 -42 -7 -42 53 0 54 22 76 45 45 17
-23 45 -22 45 2 0 23 -36 51 -65 51 -11 0 -30 -7 -42 -15z"/>
<path d="M3592 3220 c-31 -29 -32 -138 -2 -165 29 -26 79 -24 102 4 26 34 25
134 -2 161 -26 26 -70 26 -98 0z m68 -46 c11 -28 4 -91 -12 -100 -18 -12 -38
19 -38 60 0 63 32 88 50 40z"/>
<path d="M3747 3233 c-4 -3 -7 -48 -7 -100 l0 -93 60 0 c53 0 60 2 60 20 0 16
-7 20 -35 20 -28 0 -35 4 -35 20 0 16 7 20 30 20 23 0 30 4 30 20 0 16 -7 20
-30 20 -23 0 -30 4 -30 20 0 16 7 20 35 20 28 0 35 4 35 20 0 18 -7 20 -53 20
-30 0 -57 -3 -60 -7z"/>
<path d="M3890 3157 c0 -97 13 -117 73 -117 54 0 69 28 65 121 -3 68 -5 74
-25 77 -21 3 -22 -1 -25 -80 -2 -66 -6 -83 -18 -83 -12 0 -16 17 -18 83 -3 80
-3 82 -27 82 -25 0 -25 -1 -25 -83z"/>
<path d="M4060 3140 l0 -100 25 0 c22 0 25 4 25 36 0 28 3 35 18 32 11 -2 18
-14 20 -36 3 -27 7 -32 29 -32 24 0 24 2 18 43 -4 23 -12 44 -17 46 -5 1 -2
11 8 22 22 25 11 67 -22 79 -14 6 -43 10 -65 10 l-39 0 0 -100z m85 35 c0 -11
-8 -21 -17 -23 -14 -3 -18 3 -18 23 0 20 4 26 18 23 9 -2 17 -12 17 -23z"/>
<path d="M4307 3233 c-4 -3 -7 -48 -7 -100 l0 -93 48 0 c61 0 88 19 95 68 10
60 -8 108 -45 121 -35 12 -81 14 -91 4z m81 -45 c17 -17 15 -84 -4 -102 -25
-25 -34 -10 -34 55 0 60 11 74 38 47z"/>
<path d="M4480 3140 l0 -100 59 0 c51 0 59 3 57 18 -2 12 -14 18 -39 20 -28 2
-37 8 -37 22 0 14 8 20 32 22 22 2 34 9 36 21 3 14 -4 17 -32 17 -29 0 -36 4
-36 20 0 16 7 20 35 20 28 0 35 4 35 20 0 18 -7 20 -55 20 l-55 0 0 -100z"/>
<path d="M4700 3140 l0 -100 55 0 c48 0 55 3 55 19 0 15 -8 21 -32 23 l-33 3
-3 78 c-3 69 -5 77 -22 77 -19 0 -20 -7 -20 -100z"/>
<path d="M4874 3229 c-5 -9 -54 -177 -54 -186 0 -2 11 -3 25 -3 16 0 25 6 25
15 0 9 9 15 25 15 14 0 28 -7 31 -15 4 -8 16 -15 29 -15 l23 0 -23 89 c-12 49
-25 94 -29 100 -9 14 -43 14 -52 0z m36 -97 c0 -13 -5 -22 -11 -20 -6 2 -10 7
-10 11 1 4 1 19 1 35 0 21 2 24 10 12 5 -8 10 -25 10 -38z"/>
<path d="M5060 3220 c0 -13 7 -20 20 -20 18 0 20 -7 20 -80 0 -79 0 -80 25
-80 25 0 25 1 25 80 0 73 2 80 20 80 13 0 20 7 20 20 0 18 -7 20 -65 20 -58 0
-65 -2 -65 -20z"/>
<path d="M5219 3239 c-1 -2 -3 -48 -4 -101 -2 -96 -1 -98 22 -98 19 0 23 5 23
33 0 19 3 36 6 40 11 11 34 -5 34 -23 0 -33 12 -50 35 -50 22 0 23 3 18 38 -3
20 -10 42 -15 49 -5 7 -5 14 2 18 15 9 12 61 -4 74 -13 11 -114 28 -117 20z
m79 -67 c3 -17 -2 -22 -17 -22 -16 0 -21 6 -21 26 0 33 33 30 38 -4z"/>
<path d="M5421 3217 c-12 -30 -51 -162 -51 -171 0 -3 11 -6 24 -6 15 0 26 7
29 20 3 12 14 20 27 20 13 0 24 -8 27 -20 3 -13 14 -20 29 -20 13 0 24 2 24 5
0 3 -12 48 -26 100 -24 86 -29 95 -51 95 -15 0 -26 -8 -32 -23z m39 -78 c0
-17 -5 -29 -11 -27 -6 2 -10 7 -10 11 1 4 1 16 1 27 0 11 5 20 10 20 6 0 10
-14 10 -31z"/>
<path d="M5557 3234 c-4 -4 -7 -49 -7 -101 0 -86 1 -93 20 -93 18 0 20 7 20
57 0 63 8 61 34 -9 14 -39 22 -48 42 -48 24 0 24 1 24 100 0 92 -1 100 -20
100 -16 0 -19 -8 -22 -57 l-3 -58 -21 55 c-20 52 -47 74 -67 54z"/>
<path d="M5742 3224 c-17 -12 -22 -24 -20 -47 2 -26 11 -36 46 -55 46 -25 51
-36 25 -46 -11 -4 -22 -1 -29 8 -16 23 -44 20 -44 -4 0 -24 29 -40 74 -40 27
0 40 6 52 25 23 35 6 71 -41 91 -19 8 -35 21 -35 29 0 17 25 20 35 5 9 -15 45
-12 45 4 0 19 -38 46 -65 46 -11 0 -31 -7 -43 -16z"/>
<path d="M5884 3231 c-2 -2 -4 -46 -4 -98 0 -93 0 -93 25 -93 23 0 25 4 25 40
0 38 2 40 30 40 23 0 30 4 30 20 0 16 -7 20 -30 20 -23 0 -30 4 -30 20 0 16 7
20 36 20 27 0 35 4 32 16 -2 13 -16 17 -56 18 -30 0 -56 -1 -58 -3z"/>
<path d="M6041 3214 c-15 -19 -21 -41 -21 -78 0 -69 19 -96 69 -96 54 0 71 23
71 97 0 49 -4 63 -23 81 -32 30 -71 28 -96 -4z m70 -38 c15 -31 -1 -101 -21
-101 -22 0 -36 68 -22 100 15 31 29 32 43 1z"/>
<path d="M6197 3233 c-4 -3 -7 -48 -7 -100 0 -93 0 -93 25 -93 23 0 25 4 25
41 0 33 3 40 18 37 12 -2 18 -14 20 -41 3 -32 7 -37 28 -37 21 0 24 5 24 33 0
18 -4 37 -10 43 -6 6 -6 20 2 40 14 39 6 62 -27 74 -30 11 -88 13 -98 3z m78
-58 c0 -11 -8 -21 -17 -23 -14 -3 -18 3 -18 23 0 20 4 26 18 23 9 -2 17 -12
17 -23z"/>
<path d="M6360 3141 c0 -94 1 -101 20 -101 16 0 19 8 22 63 l3 62 14 -62 c11
-49 18 -63 32 -63 14 0 20 13 29 58 16 83 18 84 19 10 1 -61 3 -68 21 -68 19
0 20 7 20 90 0 50 1 93 3 97 4 13 -57 13 -65 1 -3 -7 -10 -34 -13 -61 -4 -26
-9 -46 -12 -43 -3 2 -10 28 -17 58 -11 50 -13 53 -44 56 l-32 3 0 -100z"/>
<path d="M6617 3233 c-3 -5 -16 -50 -30 -100 l-26 -93 24 0 c14 0 25 7 28 20
3 12 14 20 27 20 13 0 24 -8 27 -20 3 -13 14 -20 29 -20 26 0 29 11 15 56 -5
16 -17 55 -26 87 -13 49 -19 57 -40 57 -13 0 -26 -3 -28 -7z m42 -110 c1 -7
-6 -13 -14 -13 -16 0 -20 26 -8 57 6 16 8 15 14 -7 4 -14 7 -31 8 -37z"/>
<path d="M6720 3220 c0 -13 7 -20 20 -20 18 0 20 -7 20 -80 0 -79 0 -80 25
-80 25 0 25 1 25 80 0 74 1 80 21 80 14 0 19 5 17 18 -3 14 -16 18 -66 20 -57
3 -62 1 -62 -18z"/>
<path d="M6880 3140 c0 -93 1 -100 20 -100 19 0 20 7 20 100 0 93 -1 100 -20
100 -19 0 -20 -7 -20 -100z"/>
<path d="M6980 3222 c-17 -14 -24 -32 -28 -73 -5 -72 21 -109 78 -109 51 0 70
27 70 96 0 89 -62 133 -120 86z m68 -81 c2 -36 -1 -57 -10 -62 -20 -13 -38 11
-38 51 0 51 9 72 29 68 12 -2 17 -17 19 -57z"/>
<path d="M7230 3181 c0 -60 -7 -60 -30 2 -12 34 -21 43 -43 45 l-27 3 0 -95
c0 -89 1 -96 20 -96 18 0 20 7 20 57 0 64 9 62 35 -9 14 -39 22 -48 41 -48 24
0 24 2 24 99 0 94 -1 100 -20 98 -17 -1 -20 -8 -20 -56z"/>
</g>
</svg>
